{"glyphs":{":":{"x_min":0,"x_max":265,"ha":265,"o":"m 37 0 l 56 95 l 149 95 l 130 0 z m 211 394 l 192 299 l 99 299 l 118 394 z"},"$":{"x_min":0,"x_max":503,"ha":503,"o":"m 172 13 q 126 15 92 23 q 57 30 40 39 l 53 104 q 78 92 114 85 q 149 79 186 78 l 215 220 q 192 225 170 233 q 148 241 131 254 q 114 268 104 289 q 93 309 93 340 q 93 374 106 400 q 119 426 142 444 q 166 462 198 472 q 231 481 271 482 l 281 531 l 346 531 l 335 479 q 370 477 397 471 q 424 465 447 457 l 433 392 q 408 400 381 406 q 354 412 321 415 l 291 274 q 314 270 337 262 q 360 255 378 242 q 396 230 408 210 q 419 191 419 162 q 419 129 406 104 q 393 79 369 60 q 345 41 311 30 q 277 18 236 14 l 226 -37 l 162 -37 z m 344 157 q 344 168 339 177 q 334 186 325 192 q 316 198 304 202 q 292 206 277 209 l 250 82 q 271 84 289 90 q 306 96 318 105 q 331 114 337 127 q 344 140 344 157 z m 168 342 q 168 329 173 319 q 178 310 187 304 q 195 297 206 293 q 217 289 229 286 l 257 415 q 215 412 192 395 q 168 378 168 342 z"},"?":{"x_min":0,"x_max":415,"ha":415,"o":"m 78 0 l 98 95 l 189 95 l 169 0 z m 438 531 q 438 499 429 475 q 419 451 404 432 q 388 413 368 397 q 348 381 327 367 q 306 353 286 338 q 265 324 248 306 q 230 289 218 268 q 205 246 200 218 l 198 210 l 129 210 q 131 250 145 279 q 159 309 178 331 q 198 354 222 371 q 246 388 269 404 q 288 417 304 429 q 321 442 333 456 q 346 471 354 488 q 361 505 361 527 q 361 562 336 581 q 310 601 263 601 q 244 601 224 598 q 205 595 186 591 q 167 586 150 580 q 133 574 119 567 l 132 633 q 160 648 197 657 q 234 666 274 666 q 312 666 342 656 q 372 647 394 630 q 415 612 427 587 q 438 562 438 531 z"},"<":{"x_min":0,"x_max":513,"ha":513,"o":"m 457 101 l 457 27 l 56 229 l 56 290 l 457 492 l 457 417 l 138 260 l 138 258 z"},"'":{"x_min":0,"x_max":186,"ha":186,"o":"m 136 653 l 212 653 l 162 412 l 85 412 z"},"=":{"x_min":0,"x_max":513,"ha":513,"o":"m 56 312 l 56 376 l 457 376 l 457 312 z m 56 133 l 56 198 l 457 198 l 457 133 z"},"a":{"x_min":0,"x_max":506,"ha":506,"o":"m 372 360 q 366 369 357 378 q 349 387 337 395 q 326 402 312 407 q 298 412 281 412 q 252 412 229 399 q 205 386 187 365 q 169 345 156 318 q 143 291 134 262 q 125 234 121 206 q 117 178 117 155 q 117 125 123 104 q 128 84 138 73 q 148 62 161 57 q 173 52 187 52 q 211 52 236 65 q 260 77 282 101 q 303 125 320 159 q 337 193 347 237 z m 317 76 q 301 52 282 35 q 263 18 243 8 q 224 -3 204 -8 q 185 -12 167 -12 q 137 -12 114 -1 q 90 10 74 30 q 58 51 50 80 q 42 108 42 144 q 42 183 48 223 q 55 263 69 300 q 82 337 102 369 q 122 401 148 425 q 174 449 206 462 q 237 476 275 476 q 312 476 340 461 q 369 445 384 417 l 386 417 l 408 464 l 470 464 l 395 107 q 392 88 392 79 q 392 67 398 62 q 405 57 421 57 q 435 57 454 60 l 440 -3 q 420 -7 395 -7 q 354 -7 336 12 q 318 31 319 76 z"},"L":{"x_min":0,"x_max":497,"ha":497,"o":"m 131 72 l 443 72 l 428 0 l 37 0 l 172 653 l 252 653 z"},"3":{"x_min":0,"x_max":454,"ha":454,"o":"m 327 329 q 327 350 319 365 q 310 381 295 391 q 281 401 261 406 q 241 411 219 411 q 185 411 146 403 q 108 395 73 382 l 86 447 q 125 462 163 469 q 201 476 231 476 q 273 476 305 466 q 337 456 359 438 q 381 419 392 394 q 403 369 403 339 q 403 305 393 275 q 382 245 363 220 q 344 196 317 179 q 291 162 258 152 l 257 150 q 281 147 299 137 q 317 127 330 111 q 343 95 349 74 q 356 53 356 30 q 356 -29 334 -73 q 312 -117 275 -145 q 238 -174 190 -188 q 142 -202 88 -202 q 44 -202 8 -193 q -28 -184 -53 -170 l -40 -108 q -12 -122 19 -129 q 50 -137 93 -137 q 134 -137 168 -125 q 202 -114 227 -93 q 252 -72 266 -42 q 280 -11 280 27 q 280 47 273 64 q 266 80 249 91 q 232 103 206 108 q 179 114 141 114 l 89 114 l 102 179 l 141 179 q 182 179 215 191 q 249 202 274 222 q 299 243 313 270 q 327 297 327 329 z"},";":{"x_min":0,"x_max":265,"ha":265,"o":"m 71 106 l 155 106 l 40 -190 l -34 -190 z m 208 394 l 188 299 l 95 299 l 115 394 z"},"J":{"x_min":0,"x_max":363,"ha":363,"o":"m 286 653 l 365 653 l 258 136 q 254 117 250 103 q 245 88 239 76 q 231 58 218 42 q 205 26 185 14 q 166 2 139 -5 q 112 -12 76 -12 q 54 -12 31 -9 q 8 -5 -10 2 l 5 71 q 21 65 37 62 q 54 59 73 59 q 107 59 129 69 q 151 80 164 101 q 169 109 173 120 q 176 130 180 147 z"},"V":{"x_min":0,"x_max":572,"ha":572,"o":"m 558 653 l 646 653 l 289 0 l 221 0 l 103 653 l 181 653 l 245 289 q 264 181 272 109 l 274 109 q 302 178 358 282 z"},"\"":{"x_min":0,"x_max":352,"ha":352,"o":"m 136 653 l 212 653 l 162 412 l 85 412 z m 302 653 l 379 653 l 329 412 l 252 412 z"},"7":{"x_min":0,"x_max":419,"ha":419,"o":"m 41 394 l 55 464 l 430 464 l 419 413 l 81 -189 l 0 -189 l 325 394 z"},"S":{"x_min":0,"x_max":547,"ha":547,"o":"m 103 462 q 103 508 119 546 q 135 583 166 610 q 196 637 240 651 q 283 666 337 666 q 394 666 443 654 q 491 643 526 628 l 511 556 q 475 573 430 584 q 385 595 340 595 q 305 595 277 586 q 248 578 228 562 q 208 547 197 525 q 186 503 186 477 q 186 453 196 436 q 205 419 221 408 q 238 396 259 388 q 280 380 304 374 q 339 363 371 351 q 402 339 427 320 q 451 301 465 272 q 479 243 479 201 q 479 151 460 112 q 440 72 404 45 q 369 17 318 2 q 268 -12 208 -12 q 177 -12 146 -8 q 115 -4 90 2 q 65 9 47 17 q 29 24 19 32 l 34 102 q 49 93 69 85 q 89 77 111 71 q 133 65 157 62 q 181 59 205 59 q 251 59 287 68 q 323 78 347 96 q 372 114 384 139 q 396 165 396 196 q 396 224 384 243 q 371 263 351 275 q 330 287 304 295 q 278 303 250 312 q 220 320 194 332 q 167 344 147 362 q 126 379 115 403 q 103 428 103 462 z"},"}":{"x_min":0,"x_max":292,"ha":292,"o":"m 143 127 q 143 109 147 94 q 151 79 156 63 q 161 48 165 31 q 168 14 168 -8 q 168 -37 156 -62 q 143 -88 118 -107 q 93 -125 56 -136 q 20 -146 -27 -146 l -46 -146 l -34 -86 l -28 -86 q 33 -86 63 -66 q 94 -46 94 -5 q 94 12 90 26 q 87 40 83 54 q 79 68 76 84 q 73 100 73 120 q 73 146 80 168 q 87 190 100 207 q 113 225 130 236 q 147 248 166 253 l 166 255 q 160 257 152 262 q 145 267 137 277 q 130 286 125 301 q 120 315 120 335 q 120 352 123 367 q 127 382 133 396 q 140 410 147 422 q 155 435 163 447 q 171 459 179 470 q 187 482 193 493 q 200 505 203 516 q 207 528 207 540 q 207 565 184 579 q 162 593 114 593 l 108 593 l 121 653 l 135 653 q 179 653 208 644 q 237 635 253 621 q 270 606 276 589 q 283 571 283 553 q 283 534 278 518 q 273 501 265 486 q 257 471 247 456 q 237 442 227 428 q 218 417 210 405 q 203 393 197 381 q 190 368 187 355 q 183 342 183 328 q 183 312 190 302 q 196 293 207 289 q 217 284 230 282 q 243 281 255 281 l 243 222 q 226 222 208 219 q 189 216 175 206 q 161 196 152 177 q 143 159 143 127 z"},"Z":{"x_min":0,"x_max":567,"ha":567,"o":"m 466 582 l 125 582 l 141 653 l 592 653 l 582 604 l 131 74 l 131 72 l 486 72 l 472 0 l 5 0 l 15 50 l 466 580 z"},"x":{"x_min":0,"x_max":456,"ha":456,"o":"m 326 0 l 228 181 l 226 181 l 65 0 l -24 0 l 192 240 l 66 464 l 147 464 l 243 288 l 245 288 l 402 464 l 492 464 l 279 228 l 407 0 z"},")":{"x_min":0,"x_max":283,"ha":283,"o":"m -46 -117 q 3 -75 43 -22 q 83 31 113 94 q 142 157 157 229 q 173 302 173 381 q 173 461 155 521 q 137 581 104 624 l 148 666 q 164 650 181 623 q 198 595 213 557 q 227 520 236 472 q 246 424 246 368 q 246 279 225 201 q 205 122 170 55 q 136 -11 90 -65 q 43 -119 -8 -159 z"},"&":{"x_min":0,"x_max":636,"ha":636,"o":"m 28 143 q 28 184 42 216 q 55 247 77 271 q 100 295 129 314 q 158 333 189 349 q 174 365 162 382 q 149 398 141 416 q 132 434 127 453 q 122 473 122 494 q 122 534 137 566 q 152 598 178 620 q 204 642 239 654 q 275 666 316 666 q 352 666 380 657 q 409 648 429 632 q 449 615 460 591 q 471 567 471 537 q 471 496 456 466 q 441 436 416 412 q 392 389 360 370 q 328 352 294 335 q 308 318 325 298 q 342 278 360 255 q 379 233 399 209 q 418 186 438 162 q 468 196 491 240 q 514 284 526 340 l 599 340 q 586 270 555 213 q 524 155 480 111 q 499 89 514 70 q 530 51 543 36 q 555 21 563 12 q 571 2 573 0 l 482 0 q 480 2 466 20 q 451 38 427 65 q 375 27 317 8 q 259 -12 201 -12 q 156 -12 124 1 q 91 14 70 36 q 48 58 38 86 q 28 114 28 143 z m 210 52 q 250 52 295 67 q 341 83 386 115 q 365 139 344 164 q 322 190 302 215 q 281 239 262 262 q 243 284 228 302 q 202 289 179 273 q 156 258 139 239 q 122 221 112 198 q 102 176 102 147 q 102 100 131 76 q 160 52 210 52 z m 196 498 q 196 482 199 469 q 203 455 210 441 q 217 427 228 412 q 239 397 254 380 q 283 394 308 408 q 334 423 353 440 q 373 458 384 479 q 396 500 396 528 q 396 565 372 583 q 348 601 309 601 q 284 601 263 594 q 242 586 227 573 q 212 559 204 540 q 196 521 196 498 z"},"_":{"x_min":0,"x_max":488,"ha":488,"o":"m 0 -69 l 488 -69 l 488 -134 l 0 -134 z"},"v":{"x_min":0,"x_max":467,"ha":467,"o":"m 132 464 l 184 213 q 192 172 198 142 q 203 112 207 89 l 208 89 q 220 112 235 139 q 250 167 268 198 l 417 464 l 504 464 l 231 0 l 159 0 l 58 464 z"},"O":{"x_min":0,"x_max":697,"ha":697,"o":"m 314 -12 q 258 -12 213 3 q 167 19 135 49 q 103 79 86 124 q 68 169 68 228 q 68 277 78 328 q 88 380 107 428 q 127 477 156 520 q 186 563 225 596 q 265 628 314 647 q 363 666 422 666 q 478 666 523 650 q 569 635 601 604 q 633 574 650 529 q 667 484 667 425 q 667 376 658 325 q 648 273 628 225 q 609 176 580 133 q 550 90 511 58 q 472 25 422 7 q 373 -12 314 -12 z m 314 59 q 359 59 396 74 q 433 90 463 117 q 493 145 516 180 q 539 216 554 256 q 569 296 577 338 q 584 380 584 419 q 584 506 544 550 q 503 595 421 595 q 377 595 340 579 q 303 563 273 536 q 243 509 220 473 q 197 437 182 397 q 167 357 159 315 q 151 273 151 234 q 151 147 192 103 q 233 59 314 59 z"},"(":{"x_min":0,"x_max":283,"ha":283,"o":"m 332 624 q 283 582 243 529 q 203 476 174 413 q 145 350 129 278 q 113 206 113 125 q 113 46 131 -14 q 149 -74 182 -117 l 138 -159 q 123 -143 105 -116 q 88 -88 73 -51 q 59 -13 50 35 q 41 83 41 139 q 41 228 61 306 q 81 385 116 451 q 150 518 197 572 q 243 626 294 666 z"},"C":{"x_min":0,"x_max":563,"ha":563,"o":"m 431 595 q 387 595 348 581 q 310 567 278 543 q 247 519 222 486 q 197 453 181 414 q 164 375 155 333 q 146 290 146 246 q 146 188 164 151 q 181 115 208 94 q 235 74 270 66 q 305 59 340 59 q 379 59 416 66 q 453 73 482 83 l 467 10 q 437 -1 400 -7 q 363 -12 326 -12 q 271 -12 223 2 q 175 17 139 48 q 104 79 84 126 q 63 174 63 241 q 63 290 73 340 q 83 391 104 438 q 125 485 155 526 q 186 568 228 599 q 269 630 322 648 q 374 666 437 666 q 479 666 514 658 q 550 651 576 642 l 561 571 q 534 581 503 588 q 472 595 431 595 z"},"W":{"x_min":0,"x_max":859,"ha":859,"o":"m 496 350 q 493 441 493 486 q 493 532 493 536 l 491 536 q 461 457 426 371 l 270 0 l 195 0 l 103 653 l 182 653 l 228 295 q 246 149 248 111 l 250 111 q 269 169 319 290 l 468 653 l 552 653 l 569 283 q 573 189 575 111 l 577 111 q 592 150 610 192 q 629 234 658 292 l 844 653 l 932 653 l 587 0 l 512 0 z"},"A":{"x_min":0,"x_max":611,"ha":611,"o":"m -20 0 l 342 653 l 409 653 l 538 0 l 458 0 l 420 197 l 176 197 l 68 0 z m 215 269 l 406 269 l 383 394 q 367 480 358 537 l 356 537 q 331 478 278 383 z"},"f":{"x_min":0,"x_max":314,"ha":314,"o":"m 122 -64 q 111 -113 93 -147 q 75 -180 50 -201 q 24 -221 -8 -230 q -40 -239 -77 -239 q -100 -239 -118 -236 q -136 -232 -144 -229 l -132 -165 q -121 -169 -106 -171 q -92 -173 -81 -173 q -52 -173 -31 -166 q -11 -159 5 -142 q 21 -125 32 -98 q 43 -71 52 -30 l 142 399 l 56 399 l 70 464 l 155 464 l 172 544 q 190 633 241 676 q 292 719 364 719 q 387 719 406 716 q 426 712 437 708 l 425 646 q 410 649 396 651 q 381 653 367 653 q 318 653 288 625 q 259 597 247 538 l 231 464 l 359 464 l 345 399 l 218 399 z"},"Q":{"x_min":0,"x_max":697,"ha":697,"o":"m 663 425 q 663 368 649 313 q 636 258 612 210 q 588 162 554 123 q 521 85 480 62 l 480 60 q 530 67 593 67 q 603 67 627 67 l 612 -5 q 551 0 491 0 q 463 0 438 -1 q 414 -2 391 -4 q 368 -5 345 -7 q 322 -8 296 -8 q 243 -8 200 8 q 157 24 127 54 q 97 84 80 128 q 63 172 63 228 q 63 277 73 329 q 83 380 103 429 q 123 478 152 521 q 182 564 221 596 q 261 628 311 647 q 360 666 420 666 q 475 666 519 650 q 564 634 596 604 q 628 574 645 529 q 663 484 663 425 z m 310 59 q 354 59 391 74 q 428 90 458 117 q 488 145 511 180 q 534 216 549 256 q 564 296 572 338 q 580 380 580 419 q 580 506 539 550 q 498 595 417 595 q 372 595 335 579 q 298 563 268 536 q 238 509 215 473 q 192 437 177 397 q 162 357 154 315 q 146 273 146 234 q 146 147 187 103 q 228 59 310 59 z"},"w":{"x_min":0,"x_max":712,"ha":712,"o":"m 377 378 q 373 365 367 348 q 360 331 353 312 q 345 293 336 272 q 328 252 319 232 l 218 0 l 138 0 l 58 464 l 135 464 l 167 256 q 171 228 174 204 q 178 181 180 160 q 183 140 185 123 q 188 105 189 89 l 192 89 q 196 103 202 118 q 208 134 215 150 q 221 166 228 182 q 234 197 240 210 l 350 464 l 432 464 l 458 211 q 459 198 461 183 q 462 167 463 151 q 465 135 466 119 q 467 103 468 89 l 470 89 q 482 120 498 152 q 514 184 528 210 l 663 464 l 749 464 l 491 0 l 413 0 l 390 233 q 388 252 386 273 q 385 293 384 312 q 382 332 381 349 q 380 366 380 378 z"},"-":{"x_min":0,"x_max":323,"ha":323,"o":"m 73 279 l 279 279 l 264 208 l 59 208 z"},"E":{"x_min":0,"x_max":524,"ha":524,"o":"m 131 72 l 443 72 l 428 0 l 37 0 l 172 653 l 546 653 l 531 582 l 237 582 l 193 371 l 456 371 l 441 299 l 178 299 z"},"s":{"x_min":0,"x_max":398,"ha":398,"o":"m 147 339 q 147 324 153 313 q 159 302 169 294 q 180 286 193 280 q 207 274 222 269 q 243 262 265 253 q 286 245 304 231 q 321 218 333 197 q 344 177 344 145 q 344 106 329 77 q 315 47 289 28 q 264 8 228 -2 q 193 -12 151 -12 q 113 -12 75 -4 q 37 4 15 17 l 29 81 q 55 69 85 61 q 116 52 151 52 q 189 52 212 61 q 235 70 248 83 q 261 96 265 110 q 270 125 270 135 q 270 154 261 167 q 252 179 238 188 q 224 197 206 203 q 188 210 168 217 q 150 224 133 232 q 115 241 102 253 q 88 266 80 284 q 72 302 72 329 q 72 366 85 394 q 99 421 122 440 q 146 458 176 467 q 206 476 240 476 q 260 476 279 473 q 299 471 317 466 q 335 462 351 456 q 367 451 379 444 l 366 382 q 336 395 305 403 q 274 412 244 412 q 220 412 202 406 q 184 400 172 391 q 160 381 153 368 q 147 355 147 339 z"},">":{"x_min":0,"x_max":513,"ha":513,"o":"m 379 258 l 379 260 l 56 418 l 56 492 l 457 292 l 457 226 l 56 27 l 56 100 z"},"l":{"x_min":0,"x_max":240,"ha":240,"o":"m 172 -3 q 165 -5 152 -6 q 140 -7 126 -7 q 85 -7 65 9 q 44 25 44 60 q 44 74 48 94 l 176 707 l 252 707 l 128 114 q 124 92 124 82 q 124 70 130 64 q 137 59 153 59 q 169 59 186 62 z"},"8":{"x_min":0,"x_max":504,"ha":504,"o":"m 119 476 q 119 521 135 556 q 152 592 180 616 q 208 640 246 653 q 283 666 324 666 q 368 666 401 655 q 435 644 458 624 q 480 604 492 577 q 504 549 504 516 q 504 484 494 456 q 484 428 465 404 q 446 381 418 363 q 390 345 355 335 l 354 333 q 374 328 391 317 q 408 306 422 290 q 436 274 444 253 q 452 232 452 206 q 452 154 433 113 q 415 73 383 45 q 351 17 308 2 q 265 -12 217 -12 q 171 -12 137 -1 q 104 11 81 31 q 59 51 48 79 q 38 107 38 141 q 38 180 50 213 q 62 246 84 271 q 105 297 136 315 q 166 333 202 340 l 203 342 q 186 352 171 364 q 156 376 144 393 q 132 409 125 429 q 119 450 119 476 z m 428 513 q 428 553 402 577 q 375 602 326 602 q 296 602 272 593 q 248 583 230 567 q 213 551 204 527 q 194 504 194 475 q 194 452 201 435 q 207 417 219 405 q 231 392 248 384 q 265 375 286 369 q 316 375 343 386 q 369 398 388 417 q 407 435 417 459 q 428 483 428 513 z m 376 198 q 376 222 368 240 q 360 258 347 271 q 333 283 314 291 q 295 299 272 302 q 239 299 210 288 q 182 277 160 257 q 139 238 126 210 q 113 182 113 146 q 113 102 141 77 q 168 52 224 52 q 254 52 282 62 q 309 72 330 91 q 351 109 364 136 q 376 164 376 198 z"},"\\":{"x_min":0,"x_max":275,"ha":275,"o":"m 160 -122 l 42 653 l 111 653 l 229 -122 z"},"e":{"x_min":0,"x_max":456,"ha":456,"o":"m 437 356 q 437 312 415 283 q 394 254 353 236 q 312 218 253 209 q 194 201 118 199 q 118 193 117 188 q 117 183 117 176 q 117 113 149 83 q 181 54 244 54 q 261 54 279 56 q 296 59 314 63 q 332 67 348 72 q 364 78 377 84 l 364 15 q 339 3 305 -4 q 271 -12 231 -12 q 182 -12 146 1 q 110 15 87 40 q 63 64 52 98 q 42 132 42 173 q 42 210 49 247 q 56 284 71 318 q 85 352 106 380 q 127 409 155 430 q 183 452 218 464 q 252 476 292 476 q 321 476 347 469 q 373 462 393 447 q 413 432 425 409 q 437 387 437 356 z m 132 267 q 186 267 229 272 q 271 277 300 288 q 330 299 345 317 q 361 334 361 359 q 361 369 356 379 q 352 388 343 396 q 334 403 322 407 q 309 412 292 412 q 264 412 239 401 q 214 391 193 372 q 172 353 157 326 q 141 299 132 267 z"},"b":{"x_min":0,"x_max":488,"ha":488,"o":"m 180 404 q 190 419 204 432 q 217 445 233 455 q 249 465 268 470 q 288 476 310 476 q 336 476 361 467 q 387 458 407 439 q 427 419 439 389 q 451 358 451 314 q 451 278 445 240 q 438 201 424 165 q 410 129 389 97 q 368 64 339 40 q 310 16 273 2 q 236 -12 191 -12 q 157 -12 131 -2 q 104 9 86 27 q 68 45 58 71 q 49 96 49 126 q 49 139 50 151 q 52 163 55 177 l 166 707 l 241 707 l 178 404 z m 131 179 q 129 167 127 156 q 125 144 125 131 q 125 95 145 73 q 164 52 200 52 q 229 52 254 64 q 279 76 298 95 q 317 115 332 141 q 347 167 356 195 q 366 224 371 252 q 375 280 375 306 q 375 326 371 344 q 366 363 356 378 q 346 393 329 402 q 313 411 290 411 q 270 411 248 403 q 227 395 208 377 q 188 359 173 333 q 158 306 150 269 z"},"%":{"x_min":0,"x_max":827,"ha":827,"o":""},"m":{"x_min":0,"x_max":782,"ha":782,"o":"m 453 381 q 471 406 491 424 q 512 442 533 454 q 555 465 577 471 q 599 476 620 476 q 646 476 667 469 q 689 461 705 447 q 720 433 729 412 q 738 391 738 364 q 738 345 735 323 q 732 302 727 279 l 669 0 l 593 0 l 654 295 q 658 314 659 327 q 661 339 661 347 q 661 380 644 396 q 626 412 599 412 q 571 412 545 400 q 520 388 498 367 q 477 346 461 317 q 446 289 439 256 l 386 0 l 310 0 l 371 295 q 375 314 376 327 q 377 339 377 347 q 377 382 360 397 q 342 412 315 412 q 288 412 262 400 q 236 388 215 367 q 194 346 178 317 q 163 289 156 256 l 103 0 l 27 0 l 124 464 l 186 464 l 186 401 l 188 401 q 217 437 256 457 q 295 476 339 476 q 362 476 381 470 q 400 464 415 452 q 430 439 439 422 q 449 404 451 381 z"},"#":{"x_min":0,"x_max":630,"ha":630,"o":"m 228 463 l 286 653 l 360 653 l 302 463 l 441 463 l 500 653 l 574 653 l 516 463 l 610 463 l 603 399 l 496 399 l 451 254 l 548 254 l 542 190 l 431 190 l 373 0 l 298 0 l 357 190 l 217 190 l 159 0 l 84 0 l 143 190 l 49 190 l 56 254 l 163 254 l 208 399 l 110 399 l 117 463 z m 237 254 l 377 254 l 421 399 l 282 399 z"},",":{"x_min":0,"x_max":265,"ha":265,"o":"m 74 106 l 158 106 l 40 -190 l -34 -190 z"},"n":{"x_min":0,"x_max":518,"ha":518,"o":"m 103 0 l 27 0 l 124 464 l 186 464 l 186 401 l 188 401 q 217 436 258 456 q 298 476 348 476 q 376 476 399 469 q 422 461 439 447 q 455 433 464 412 q 474 391 474 364 q 474 345 470 323 q 467 302 462 279 l 404 0 l 329 0 l 388 288 q 396 324 396 347 q 396 364 391 377 q 386 389 376 397 q 367 404 354 408 q 341 412 326 412 q 293 412 265 400 q 237 388 215 367 q 193 346 178 317 q 163 289 156 256 z"},"h":{"x_min":0,"x_max":522,"ha":522,"o":"m 192 401 q 222 436 262 456 q 302 476 350 476 q 378 476 402 469 q 426 461 443 447 q 460 433 469 412 q 479 391 479 364 q 479 345 475 323 q 472 302 467 279 l 409 0 l 333 0 l 393 286 q 398 311 399 325 q 401 339 401 347 q 401 364 396 377 q 390 389 381 397 q 372 404 359 408 q 346 412 331 412 q 298 412 270 400 q 242 388 220 367 q 198 346 183 317 q 167 289 161 256 l 107 0 l 32 0 l 179 707 l 254 707 l 190 401 z"},"z":{"x_min":0,"x_max":427,"ha":427,"o":"m 310 397 l 310 399 l 83 399 l 97 464 l 422 464 l 412 416 l 117 67 l 117 65 l 363 65 l 350 0 l 0 0 l 8 41 z"},"B":{"x_min":0,"x_max":591,"ha":591,"o":"m 418 333 q 442 329 463 319 q 483 308 498 292 q 512 275 520 254 q 528 233 528 207 q 528 173 516 142 q 504 110 480 85 q 456 59 419 40 q 383 21 334 11 q 308 5 278 3 q 248 0 208 0 l 37 0 l 173 653 l 326 653 q 354 653 377 652 q 400 650 423 645 q 452 638 476 624 q 500 611 516 592 q 533 573 542 550 q 552 526 552 498 q 552 433 516 393 q 480 352 418 335 z m 178 299 l 131 72 l 220 72 q 253 72 277 74 q 300 76 319 80 q 354 88 378 102 q 402 115 417 133 q 432 150 439 170 q 445 189 445 209 q 445 239 428 260 q 412 282 380 292 q 357 299 320 299 z m 237 582 l 193 371 l 312 371 q 346 371 374 378 q 402 385 424 401 q 445 416 457 439 q 469 462 469 494 q 469 525 450 546 q 432 566 398 575 q 385 579 369 580 q 353 582 333 582 z"},"K":{"x_min":0,"x_max":571,"ha":571,"o":"m 187 331 l 529 653 l 629 653 l 276 322 l 518 0 l 424 0 l 185 320 l 183 320 l 116 0 l 37 0 l 172 653 l 252 653 l 185 331 z"},"R":{"x_min":0,"x_max":581,"ha":581,"o":"m 172 271 l 116 0 l 37 0 l 172 653 l 343 653 q 372 653 397 651 q 423 648 443 643 q 507 626 538 586 q 569 546 569 493 q 569 454 557 420 q 545 386 520 358 q 494 330 455 310 q 415 291 359 281 l 359 279 l 509 0 l 420 0 l 278 271 z m 188 342 l 261 342 q 296 342 322 345 q 348 348 368 353 q 403 362 426 378 q 449 393 462 411 q 476 430 481 449 q 486 469 486 488 q 486 518 469 540 q 452 563 417 574 q 392 582 348 582 l 237 582 z"},"T":{"x_min":0,"x_max":517,"ha":517,"o":"m 246 0 l 166 0 l 287 582 l 84 582 l 99 653 l 584 653 l 569 582 l 366 582 z"},"P":{"x_min":0,"x_max":569,"ha":569,"o":"m 250 266 q 208 266 172 271 l 116 0 l 37 0 l 172 653 l 332 653 q 365 653 388 651 q 411 649 429 645 q 461 637 486 623 q 510 608 526 589 q 542 570 549 547 q 557 524 557 499 q 557 455 541 413 q 524 371 487 339 q 451 306 391 286 q 332 266 250 266 z m 188 343 q 220 337 255 337 q 298 337 333 345 q 368 352 392 364 q 416 376 432 393 q 448 409 458 426 q 467 443 470 461 q 474 479 474 494 q 474 524 458 544 q 442 565 408 575 q 396 578 381 580 q 365 582 340 582 l 237 582 z"},"|":{"x_min":0,"x_max":227,"ha":227,"o":"m 149 -227 l 78 -227 l 78 707 l 149 707 z"},"t":{"x_min":0,"x_max":341,"ha":341,"o":"m 274 -3 q 263 -6 241 -9 q 219 -12 197 -12 q 135 -12 107 12 q 79 37 79 80 q 79 96 83 121 l 141 399 l 51 399 l 65 464 l 155 464 l 181 591 l 257 591 l 231 464 l 354 464 l 340 399 l 217 399 l 163 139 q 161 126 159 117 q 158 108 158 99 q 158 74 171 64 q 185 54 217 54 q 231 54 252 56 q 272 59 288 63 z"},"M":{"x_min":0,"x_max":791,"ha":791,"o":"m 377 136 q 420 219 450 270 l 675 653 l 793 653 l 658 0 l 578 0 l 650 343 q 663 404 677 461 q 690 518 702 561 l 698 561 q 658 479 596 375 l 371 0 l 332 0 l 263 362 q 243 464 229 561 l 225 561 q 208 445 189 356 l 116 0 l 37 0 l 172 653 l 283 653 l 356 255 q 369 187 375 136 z"},"g":{"x_min":0,"x_max":499,"ha":499,"o":"m 381 360 q 375 369 366 378 q 357 387 346 395 q 334 402 320 407 q 305 412 287 412 q 259 412 235 399 q 212 386 194 365 q 175 345 162 318 q 148 291 140 262 q 131 234 126 206 q 122 178 122 155 q 122 125 128 104 q 134 84 145 73 q 155 62 168 57 q 181 52 195 52 q 219 52 244 65 q 269 77 291 101 q 312 125 330 159 q 348 193 356 237 z m 325 74 l 323 74 q 307 49 288 33 q 269 16 250 6 q 231 -4 212 -8 q 193 -12 175 -12 q 145 -12 121 -1 q 97 10 80 30 q 64 51 55 80 q 46 108 46 144 q 46 183 53 223 q 61 263 74 300 q 88 337 108 369 q 128 401 155 425 q 181 449 213 462 q 245 476 283 476 q 320 476 349 460 q 378 445 394 417 l 396 417 l 418 464 l 479 464 l 378 -28 q 366 -85 343 -125 q 320 -165 287 -190 q 253 -216 211 -228 q 169 -239 119 -239 q 79 -239 44 -232 q 9 -226 -22 -214 l -9 -148 q 19 -159 52 -166 q 84 -173 115 -173 q 160 -173 193 -163 q 226 -152 249 -129 q 271 -107 286 -73 q 301 -38 312 9 z"},"j":{"x_min":0,"x_max":225,"ha":225,"o":"m 135 464 l 210 464 l 97 -86 q 89 -124 76 -153 q 63 -181 42 -200 q 22 -220 -7 -229 q -37 -239 -77 -239 q -100 -239 -119 -236 q -138 -232 -146 -229 l -134 -166 q -120 -169 -104 -171 q -89 -173 -80 -173 q -54 -173 -36 -167 q -19 -161 -7 -147 q 4 -133 12 -111 q 20 -88 27 -56 z m 155 572 l 172 655 l 252 655 l 235 572 z"},"i":{"x_min":0,"x_max":213,"ha":213,"o":"m 27 0 l 123 464 l 199 464 l 103 0 z m 144 572 l 161 655 l 240 655 l 223 572 z"},"y":{"x_min":0,"x_max":470,"ha":470,"o":"m 61 464 l 139 464 l 219 97 l 221 97 l 419 464 l 506 464 l 241 -13 q 217 -57 194 -94 q 172 -131 147 -159 q 113 -198 73 -219 q 32 -239 -23 -239 q -34 -239 -44 -239 q -55 -238 -66 -236 l -52 -170 q -45 -171 -38 -172 q -31 -173 -24 -173 q 5 -173 30 -162 q 55 -152 78 -130 q 101 -108 122 -74 q 144 -41 166 6 z"},"@":{"x_min":0,"x_max":994,"ha":994,"o":"m 655 132 q 648 99 655 80 q 663 62 689 62 q 717 62 744 81 q 771 100 793 134 q 815 169 829 218 q 843 267 843 327 q 843 392 822 443 q 801 494 762 528 q 724 563 670 581 q 616 600 551 600 q 482 600 427 583 q 372 566 329 536 q 286 507 254 466 q 223 425 203 378 q 183 331 173 278 q 163 226 163 173 q 163 104 182 46 q 202 -11 241 -52 q 281 -92 342 -115 q 403 -137 486 -137 q 562 -137 626 -125 q 691 -113 737 -96 l 723 -165 q 700 -172 672 -179 q 644 -186 613 -191 q 582 -196 549 -199 q 515 -202 481 -202 q 396 -202 324 -179 q 251 -156 199 -109 q 146 -62 117 8 q 88 79 88 174 q 88 240 102 302 q 115 363 142 418 q 168 473 207 518 q 246 563 297 596 q 348 629 411 647 q 474 666 547 666 q 631 666 699 641 q 767 617 815 573 q 863 528 889 465 q 915 401 915 324 q 915 252 896 192 q 878 132 845 89 q 812 46 768 22 q 724 -2 673 -2 q 648 -2 630 4 q 613 11 602 23 q 591 35 586 51 q 581 67 582 86 l 580 86 q 563 62 543 45 q 523 28 503 17 q 482 7 461 2 q 440 -2 421 -2 q 363 -2 330 36 q 296 74 296 151 q 296 187 303 225 q 310 263 323 299 q 336 334 356 365 q 376 397 402 420 q 428 444 459 458 q 491 471 529 471 q 566 471 594 456 q 623 440 638 413 l 640 413 l 662 459 l 724 459 z m 626 355 q 620 364 611 373 q 603 382 591 390 q 580 397 566 402 q 552 407 535 407 q 506 407 483 395 q 459 382 441 362 q 423 341 410 315 q 397 289 389 261 q 380 233 376 206 q 372 178 372 155 q 372 124 378 106 q 383 87 392 78 q 401 68 413 65 q 425 62 438 62 q 464 62 490 74 q 516 87 538 111 q 560 134 577 169 q 594 203 604 247 z"},".":{"x_min":0,"x_max":265,"ha":265,"o":"m 37 0 l 56 95 l 149 95 l 130 0 z"},"p":{"x_min":0,"x_max":500,"ha":500,"o":"m 125 91 q 141 75 163 64 q 186 52 219 52 q 249 52 272 65 q 296 77 315 98 q 333 118 347 145 q 361 171 370 199 q 378 228 383 255 q 387 283 387 306 q 387 337 381 357 q 375 377 365 389 q 354 401 340 406 q 327 411 312 411 q 289 411 265 398 q 240 386 218 362 q 196 338 179 304 q 162 269 152 225 z m 188 400 l 190 400 q 207 421 224 436 q 242 450 260 459 q 277 468 295 472 q 313 476 330 476 q 361 476 386 465 q 411 453 428 431 q 445 410 454 379 q 463 348 463 309 q 463 272 456 234 q 450 196 436 160 q 423 125 403 93 q 383 62 357 38 q 331 15 298 1 q 265 -12 226 -12 q 189 -12 161 -1 q 133 10 114 29 l 112 29 l 59 -227 l -17 -227 l 126 464 l 188 464 z"},"X":{"x_min":0,"x_max":580,"ha":580,"o":"m 59 0 l -36 0 l 261 340 l 119 653 l 205 653 l 321 396 l 323 396 l 547 653 l 642 653 l 355 326 l 504 0 l 418 0 l 295 269 l 293 269 z"},"*":{"x_min":0,"x_max":536,"ha":536,"o":"m 305 415 l 303 415 l 247 327 l 180 262 l 130 313 l 197 377 l 284 435 l 284 438 l 186 465 l 107 507 l 140 570 l 220 528 l 296 462 l 298 464 l 294 565 l 311 656 l 380 644 l 364 553 l 326 459 l 328 457 l 422 492 l 511 504 l 521 435 l 432 422 l 331 429 l 330 427 l 391 343 l 432 260 l 369 229 l 328 312 z"},"Y":{"x_min":0,"x_max":536,"ha":536,"o":"m 195 0 l 250 264 l 98 653 l 178 653 l 296 342 l 298 342 l 507 653 l 599 653 l 330 264 l 275 0 z"},"c":{"x_min":0,"x_max":415,"ha":415,"o":"m 404 386 q 380 396 352 403 q 324 410 300 410 q 267 410 240 398 q 213 387 193 367 q 172 348 158 323 q 144 298 135 272 q 125 245 121 219 q 117 193 117 172 q 117 138 125 115 q 134 92 149 78 q 164 65 184 59 q 205 54 229 54 q 264 54 297 63 q 330 72 352 84 l 338 15 q 329 9 315 4 q 301 0 285 -4 q 269 -8 252 -10 q 234 -12 217 -12 q 182 -12 150 -2 q 118 7 94 29 q 70 51 56 85 q 42 119 42 167 q 42 200 48 235 q 54 270 68 305 q 81 339 102 370 q 122 401 151 425 q 179 448 216 462 q 253 476 298 476 q 316 476 333 474 q 350 471 365 468 q 381 464 394 459 q 408 455 417 450 z"},"!":{"x_min":0,"x_max":264,"ha":264,"o":"m 37 0 l 56 95 l 147 95 l 128 0 z m 260 653 l 156 210 l 90 210 l 171 653 z"},"/":{"x_min":0,"x_max":275,"ha":275,"o":"m -64 -122 l 282 653 l 358 653 l 11 -122 z"},"[":{"x_min":0,"x_max":309,"ha":309,"o":"m 167 653 l 365 653 l 353 593 l 228 593 l 86 -86 l 210 -86 l 198 -146 l 0 -146 z"},"6":{"x_min":0,"x_max":507,"ha":507,"o":"m 457 232 q 457 190 442 146 q 428 103 400 68 q 372 32 329 10 q 287 -12 231 -12 q 193 -12 161 0 q 128 13 105 39 q 82 65 69 104 q 56 144 56 196 q 56 243 65 295 q 74 348 92 400 q 110 452 137 500 q 164 547 200 584 q 237 622 283 644 q 329 666 385 666 q 415 666 442 660 q 469 654 502 640 l 489 576 q 469 585 443 592 q 417 600 390 600 q 344 600 306 579 q 269 559 238 522 q 207 486 183 436 q 160 386 143 326 l 145 326 q 172 357 210 375 q 248 394 293 394 q 326 394 355 384 q 384 375 407 355 q 430 336 443 305 q 457 275 457 232 z m 281 326 q 249 326 221 314 q 194 302 174 281 q 154 259 143 230 q 132 201 132 166 q 132 139 139 118 q 146 97 160 82 q 174 67 193 60 q 211 52 234 52 q 271 52 299 68 q 326 83 344 108 q 363 133 372 164 q 381 195 381 226 q 381 252 373 271 q 365 290 352 302 q 338 314 320 320 q 302 326 281 326 z"},"r":{"x_min":0,"x_max":318,"ha":318,"o":"m 347 399 q 332 401 317 401 q 283 401 255 390 q 228 378 208 359 q 188 339 175 312 q 162 286 156 256 l 103 0 l 27 0 l 124 464 l 186 464 l 186 401 l 188 401 q 199 417 213 430 q 228 444 245 454 q 263 464 283 470 q 304 476 329 476 q 337 476 346 475 q 354 475 362 473 z"},"2":{"x_min":0,"x_max":504,"ha":504,"o":"m 169 65 q 229 70 269 70 l 411 70 l 396 0 l 29 0 l 39 52 q 104 94 160 131 q 217 168 259 204 q 301 240 325 275 q 350 310 350 346 q 350 375 330 393 q 310 411 265 411 q 228 411 188 400 q 149 389 108 372 l 122 438 q 150 454 190 465 q 230 476 270 476 q 311 476 340 466 q 370 457 389 440 q 408 423 417 400 q 425 377 425 351 q 425 308 405 270 q 384 232 349 198 q 313 164 267 131 q 221 99 169 67 z"},"{":{"x_min":0,"x_max":292,"ha":292,"o":"m 152 379 q 152 397 148 413 q 144 428 139 443 q 134 459 130 476 q 126 493 126 515 q 126 544 139 569 q 152 595 177 614 q 202 632 239 643 q 275 653 322 653 l 341 653 l 329 593 l 323 593 q 262 593 232 573 q 201 553 201 512 q 201 495 205 481 q 208 467 212 453 q 216 438 219 423 q 222 407 222 387 q 222 361 215 339 q 208 317 195 300 q 182 282 165 271 q 148 259 129 253 l 129 251 q 135 250 143 245 q 150 240 158 230 q 165 221 170 206 q 175 192 175 172 q 175 155 172 140 q 168 125 162 111 q 155 97 148 84 q 140 72 132 60 q 124 48 116 36 q 108 25 102 13 q 95 2 92 -10 q 88 -21 88 -33 q 88 -59 111 -73 q 133 -86 181 -86 l 187 -86 l 174 -146 l 160 -146 q 116 -146 87 -137 q 58 -128 42 -114 q 25 -100 19 -82 q 12 -64 12 -46 q 12 -27 17 -11 q 22 6 30 21 q 38 36 48 51 q 58 65 68 79 q 77 90 84 102 q 92 114 98 126 q 104 139 108 152 q 112 165 112 179 q 112 195 105 204 q 99 213 88 218 q 78 223 65 224 q 52 226 40 226 l 52 285 q 69 285 87 288 q 105 291 120 301 q 134 311 143 330 q 152 348 152 379 z"},"9":{"x_min":0,"x_max":507,"ha":507,"o":"m 452 265 q 452 207 441 147 q 431 87 410 35 q 390 -17 360 -60 q 331 -104 293 -135 q 256 -167 211 -184 q 166 -202 115 -202 q 73 -202 42 -192 q 11 -183 -7 -173 l 8 -110 q 28 -121 54 -128 q 81 -136 112 -136 q 159 -136 201 -115 q 243 -94 276 -57 q 309 -20 333 31 q 358 82 373 141 l 371 141 q 359 125 342 112 q 325 99 305 90 q 285 81 262 75 q 239 70 214 70 q 181 70 151 80 q 122 90 100 110 q 78 130 65 160 q 53 190 53 230 q 53 282 69 326 q 85 371 114 404 q 143 438 182 457 q 222 476 270 476 q 306 476 339 464 q 373 452 398 427 q 423 401 438 362 q 452 322 452 265 z m 225 138 q 260 138 288 150 q 317 163 336 185 q 356 206 366 234 q 376 262 376 292 q 376 318 370 340 q 363 362 349 378 q 336 394 316 403 q 297 412 271 412 q 241 412 215 398 q 188 385 169 361 q 150 337 139 304 q 128 272 128 234 q 129 186 154 162 q 180 138 225 138 z"}," ":{"x_min":0,"x_max":200,"ha":200,"o":""},"I":{"x_min":0,"x_max":250,"ha":250,"o":"m 37 0 l 172 653 l 252 653 l 116 0 z"},"H":{"x_min":0,"x_max":654,"ha":654,"o":"m 192 371 l 517 371 l 575 653 l 655 653 l 519 0 l 439 0 l 501 299 l 178 299 l 116 0 l 37 0 l 172 653 l 252 653 z"},"4":{"x_min":0,"x_max":502,"ha":502,"o":"m 109 65 l 109 63 l 182 65 l 271 65 l 301 213 l 377 213 l 346 65 l 438 65 l 425 0 l 333 0 l 293 -189 l 218 -189 l 257 0 l 10 0 l 21 56 l 282 464 l 364 464 z"},"~":{"x_min":0,"x_max":513,"ha":513,"o":"m 458 240 q 451 224 439 210 q 428 197 413 187 q 398 177 380 171 q 362 166 341 166 q 318 166 296 172 q 274 179 253 188 q 230 197 208 205 q 187 213 167 213 q 142 213 126 201 q 111 188 98 169 l 48 205 q 56 221 67 234 q 79 248 94 258 q 109 268 127 273 q 145 279 166 279 q 189 279 214 271 q 238 263 260 254 q 282 245 301 238 q 321 231 339 231 q 365 231 380 243 q 396 256 409 275 z"},"D":{"x_min":0,"x_max":650,"ha":650,"o":"m 538 411 q 538 446 530 472 q 521 499 506 519 q 491 538 471 551 q 450 564 426 571 q 408 577 387 579 q 367 582 336 582 l 237 582 l 131 72 l 196 72 q 235 72 264 75 q 293 79 317 85 q 362 97 396 118 q 430 140 455 167 q 479 195 495 227 q 512 259 521 291 q 530 323 534 354 q 538 385 538 411 z m 621 403 q 621 367 615 327 q 608 288 594 249 q 580 210 557 173 q 535 136 502 105 q 470 74 427 50 q 384 26 329 13 q 301 7 268 3 q 236 0 191 0 l 37 0 l 172 653 l 337 653 q 371 653 397 650 q 423 647 445 642 q 491 630 524 607 q 558 585 579 554 q 601 523 611 485 q 621 446 621 403 z"},"^":{"x_min":0,"x_max":513,"ha":513,"o":"m 97 265 l 24 265 l 223 666 l 290 666 l 489 265 l 416 265 l 257 588 l 255 588 z"},"0":{"x_min":0,"x_max":505,"ha":505,"o":"m 468 302 q 468 269 461 232 q 455 196 440 161 q 426 126 405 94 q 384 63 355 39 q 326 16 290 2 q 254 -12 210 -12 q 163 -12 130 1 q 97 14 76 38 q 55 61 46 93 q 37 125 37 162 q 37 195 43 232 q 50 268 64 303 q 79 338 100 369 q 121 401 150 425 q 179 448 215 462 q 251 476 295 476 q 342 476 375 463 q 408 450 429 426 q 450 403 459 371 q 468 339 468 302 z m 112 164 q 112 110 136 81 q 160 52 213 52 q 252 52 285 73 q 318 94 342 128 q 366 163 379 207 q 393 252 393 300 q 393 354 369 383 q 345 412 292 412 q 252 412 219 391 q 187 370 163 336 q 139 301 126 257 q 112 212 112 164 z"},"F":{"x_min":0,"x_max":478,"ha":478,"o":"m 37 0 l 172 653 l 539 653 l 524 582 l 237 582 l 193 371 l 449 371 l 434 299 l 178 299 l 116 0 z"},"`":{"x_min":0,"x_max":342,"ha":342,"o":"m 253 719 l 277 549 l 216 549 l 173 719 z m 0 464 z"},"k":{"x_min":0,"x_max":454,"ha":454,"o":"m 399 -9 q 387 -11 375 -11 q 346 -11 323 0 q 300 11 283 28 q 267 46 254 69 q 242 91 231 115 q 223 136 215 157 q 207 178 198 195 q 190 212 180 225 q 170 238 158 243 l 107 0 l 32 0 l 179 707 l 254 707 l 161 258 l 164 258 l 384 464 l 488 464 l 248 248 q 256 241 263 229 q 270 217 276 202 q 282 187 288 170 q 294 153 302 137 q 309 121 318 105 q 327 90 338 79 q 349 68 364 61 q 378 54 396 54 q 404 54 413 56 z"},"u":{"x_min":0,"x_max":498,"ha":498,"o":"m 216 -12 q 174 -12 143 -2 q 112 9 93 27 q 73 46 63 71 q 54 97 54 126 q 54 137 55 149 q 56 160 59 174 l 119 464 l 195 464 l 136 179 q 133 167 132 156 q 130 145 130 135 q 130 116 135 101 q 140 85 151 75 q 161 64 178 58 q 195 52 219 52 q 249 52 271 61 q 293 69 309 86 q 325 102 334 125 q 344 147 350 175 l 410 464 l 486 464 l 423 162 q 417 134 407 107 q 397 81 381 59 q 358 27 317 7 q 277 -12 216 -12 z"},"]":{"x_min":0,"x_max":309,"ha":309,"o":"m 142 -146 l -56 -146 l -43 -86 l 81 -86 l 223 593 l 98 593 l 111 653 l 309 653 z"},"U":{"x_min":0,"x_max":645,"ha":645,"o":"m 283 59 q 316 59 344 66 q 372 73 394 87 q 416 100 433 119 q 450 137 462 159 q 474 180 481 204 q 489 228 496 259 l 577 653 l 657 653 l 570 234 q 564 204 556 179 q 548 153 536 131 q 520 100 496 74 q 472 47 441 28 q 409 9 369 -1 q 329 -12 280 -12 q 225 -12 185 2 q 145 17 119 42 q 93 67 81 102 q 68 137 68 177 q 68 196 71 218 q 74 240 79 264 l 160 653 l 239 653 l 158 259 q 153 237 151 220 q 148 203 148 188 q 148 160 155 136 q 163 112 179 95 q 195 78 220 68 q 246 59 283 59 z"},"o":{"x_min":0,"x_max":491,"ha":491,"o":"m 289 412 q 260 412 237 401 q 213 390 194 372 q 175 354 161 329 q 146 305 137 277 q 127 250 122 221 q 117 192 117 166 q 117 140 123 119 q 128 98 140 83 q 152 68 170 60 q 188 52 212 52 q 240 52 264 63 q 288 74 307 92 q 326 110 340 135 q 354 159 364 186 q 374 213 379 242 q 384 271 384 298 q 384 324 378 345 q 373 366 361 381 q 349 396 331 404 q 313 412 289 412 z m 459 293 q 459 263 453 229 q 447 194 434 160 q 420 126 400 95 q 380 63 352 40 q 324 16 288 2 q 252 -12 207 -12 q 170 -12 139 -1 q 108 11 87 33 q 65 56 53 88 q 42 121 42 163 q 42 193 48 229 q 54 264 67 299 q 80 333 100 365 q 121 397 148 422 q 176 447 212 461 q 249 476 293 476 q 331 476 361 465 q 392 453 414 430 q 436 408 448 374 q 459 339 459 293 z"},"N":{"x_min":0,"x_max":674,"ha":674,"o":"m 492 118 q 495 137 498 157 q 501 178 504 199 q 508 221 512 242 q 516 263 520 282 l 597 653 l 677 653 l 541 0 l 467 0 l 290 381 q 272 417 255 458 q 237 498 223 537 l 221 537 q 215 497 208 453 q 202 410 193 372 l 116 0 l 37 0 l 172 653 l 246 653 l 436 244 q 449 214 464 182 q 479 149 490 118 z"},"+":{"x_min":0,"x_max":513,"ha":513,"o":"m 56 287 l 222 287 l 222 464 l 291 464 l 291 287 l 457 287 l 457 222 l 291 222 l 291 45 l 222 45 l 222 222 l 56 222 z"},"G":{"x_min":0,"x_max":671,"ha":671,"o":"m 460 666 q 484 666 509 663 q 533 661 555 657 q 577 653 596 648 q 614 643 627 638 l 613 567 q 582 579 544 587 q 507 595 464 595 q 414 595 371 582 q 329 568 294 545 q 260 521 233 489 q 207 457 189 418 q 171 380 162 337 q 153 294 153 250 q 153 201 165 165 q 177 129 200 105 q 222 82 254 70 q 287 59 327 59 q 401 59 447 94 q 492 129 511 208 l 524 264 l 375 264 l 390 336 l 618 336 l 587 191 q 574 133 549 94 q 523 54 489 31 q 454 7 411 -2 q 369 -12 323 -12 q 266 -12 219 3 q 172 19 138 51 q 105 82 87 130 q 68 177 68 242 q 68 291 78 341 q 88 392 109 439 q 130 486 162 527 q 194 568 237 599 q 281 630 336 648 q 392 666 460 666 z"},"q":{"x_min":0,"x_max":494,"ha":494,"o":"m 377 360 q 371 369 362 378 q 353 387 341 395 q 330 402 315 407 q 301 412 283 412 q 254 412 231 399 q 207 387 189 366 q 170 346 157 319 q 144 293 135 264 q 125 236 121 208 q 117 179 117 155 q 117 125 123 104 q 129 84 140 73 q 150 62 163 57 q 176 52 190 52 q 214 52 239 65 q 264 77 286 101 q 308 125 325 159 q 342 193 352 237 z m 316 68 l 314 69 q 298 46 280 30 q 262 15 243 5 q 225 -4 206 -8 q 187 -12 169 -12 q 140 -12 116 -1 q 92 10 76 31 q 59 52 50 81 q 42 110 42 145 q 42 186 49 226 q 56 266 69 303 q 83 339 103 371 q 123 403 149 426 q 175 450 208 463 q 240 476 277 476 q 314 476 344 460 q 374 445 389 417 l 391 417 l 413 464 l 475 464 l 331 -227 l 254 -227 z"},"d":{"x_min":0,"x_max":513,"ha":513,"o":"m 377 360 q 371 369 362 378 q 353 387 341 395 q 329 402 314 406 q 299 411 281 411 q 253 411 230 399 q 206 386 188 366 q 170 345 156 319 q 143 292 134 264 q 125 235 121 207 q 117 179 117 155 q 117 125 124 104 q 130 84 140 73 q 150 62 164 57 q 177 52 190 52 q 214 52 239 65 q 264 77 286 101 q 308 125 325 159 q 343 193 352 237 z m 171 -12 q 140 -12 116 -1 q 92 10 76 30 q 59 51 50 80 q 42 108 42 144 q 42 185 49 225 q 56 266 69 303 q 83 340 103 372 q 123 403 149 427 q 175 450 207 463 q 240 476 274 476 q 314 476 343 460 q 371 444 387 417 l 389 417 l 449 707 l 525 707 l 400 107 q 398 99 397 92 q 396 84 396 79 q 396 67 403 62 q 409 57 426 57 q 432 57 441 57 q 450 58 458 60 l 445 -3 q 438 -5 425 -6 q 413 -7 400 -7 q 359 -7 341 12 q 323 31 324 76 l 322 76 q 306 52 286 35 q 267 18 247 8 q 228 -3 208 -8 q 188 -12 171 -12 z"},"1":{"x_min":0,"x_max":454,"ha":454,"o":"m 185 70 l 250 381 l 68 326 l 83 399 l 277 464 l 342 464 l 260 70 l 404 70 l 390 0 l 27 0 l 41 70 z"},"5":{"x_min":0,"x_max":487,"ha":487,"o":"m 153 200 q 164 201 169 201 q 212 201 248 192 q 283 183 310 166 q 346 142 365 106 q 384 69 384 23 q 384 -19 369 -59 q 353 -100 321 -131 q 289 -163 240 -182 q 191 -202 125 -202 q 82 -202 43 -193 q 5 -184 -22 -169 l -9 -107 q 25 -123 58 -129 q 91 -136 122 -136 q 167 -136 203 -123 q 240 -109 263 -87 q 286 -65 297 -37 q 309 -9 309 21 q 309 82 255 111 q 211 135 131 135 q 102 135 61 131 l 160 464 l 465 464 l 451 394 l 211 394 z"}}}
